<?xml version="1.0" encoding="UTF-8"?>
<!-- The Best Svg Icon site in the world: iconSvg.co, Visit us! https://iconsvg.co -->
<svg fill="#000000" width="800px" height="800px" version="1.1" viewBox="144 144 512 512" xmlns="http://www.w3.org/2000/svg">
 <g>
  <path d="m302.32 534.69c5.3828-0.58594 10.609-2.1562 15.422-4.6289v-88.938c-4.9883-2.0117-10.148-3.5586-15.422-4.625z"/>
  <path d="m531.09 463.23c-6 0-11.754 2.3828-15.996 6.625-4.2422 4.2422-6.625 9.9961-6.625 15.996 0 8.082 4.3086 15.551 11.309 19.59 7 4.0391 15.621 4.0391 22.621 0 7-4.0391 11.309-11.508 11.309-19.59 0-6-2.3828-11.754-6.625-15.996-4.2422-4.2422-9.9961-6.625-15.992-6.625z"/>
  <path d="m438.55 463.23c-6 0-11.754 2.3828-15.992 6.625-4.2422 4.2422-6.6289 9.9961-6.6289 15.996 0 8.082 4.3125 15.551 11.312 19.59 6.9961 4.0391 15.621 4.0391 22.621 0 6.9961-4.0391 11.309-11.508 11.309-19.59 0-6-2.3828-11.754-6.625-15.996-4.2422-4.2422-9.9961-6.625-15.996-6.625z"/>
  <path d="m256.05 518.24v-64.773c-5.1406 8.7383-11.824 20.051-11.824 32.387 0 12.34 6.6797 23.648 11.824 32.387z"/>
  <path d="m577.36 307.46h-290.46l192.27-58.605c5.1992-1.9336 8.0859-7.4883 6.6836-12.852-1.7227-5.3789-7.4609-8.3633-12.852-6.6836l-246.77 75.57c-1.543 0.51562-3.0859 2.5703-4.625 2.5703h-4.1133c-6.2266 0.26562-12.113 2.9297-16.426 7.4297-4.3086 4.5039-6.7148 10.5-6.707 16.734v215.92c-0.007812 6.0469 2.4609 11.828 6.832 16.008 4.3711 4.1758 10.262 6.3789 16.301 6.0977h359.86c6.0391 0.28125 11.93-1.9219 16.301-6.0977 4.3711-4.1797 6.8398-9.9609 6.832-16.008v-215.92c0.007812-6.2344-2.3945-12.23-6.707-16.734-4.3125-4.5-10.195-7.1641-16.426-7.4297zm-246.25 232.88c-0.4375 1.0156-1.4688 1.6328-2.5703 1.543-9.75 5.9805-20.949 9.1797-32.387 9.2539-11.598-0.082031-22.961-3.2773-32.902-9.2539-1.0273 0-1.543-0.51562-2.5703-1.543-18.57-11.902-29.805-32.438-29.816-54.492-0.066406-22.215 11.168-42.938 29.816-55.008l2.5703-1.543c9.9805-5.8164 21.348-8.8359 32.902-8.7383 11.391-0.10938 22.594 2.9141 32.387 8.7383l2.5703 1.543c18.652 12.07 29.883 32.793 29.816 55.008-0.011719 22.055-11.246 42.59-29.816 54.492zm107.45-16.449c-10.09 0-19.766-4.0078-26.898-11.141-7.1367-7.1367-11.145-16.812-11.145-26.902 0-10.09 4.0078-19.766 11.145-26.898 7.1328-7.1367 16.809-11.145 26.898-11.145 10.09 0 19.766 4.0078 26.902 11.145 7.1328 7.1328 11.141 16.809 11.141 26.898 0 10.09-4.0078 19.766-11.141 26.902-7.1367 7.1328-16.812 11.141-26.902 11.141zm92.535 0h0.003906c-10.09 0-19.77-4.0078-26.902-11.141-7.1328-7.1367-11.141-16.812-11.141-26.902 0-10.09 4.0078-19.766 11.141-26.898 7.1328-7.1367 16.812-11.145 26.902-11.145 10.086 0 19.766 4.0078 26.898 11.145 7.1328 7.1328 11.141 16.809 11.141 26.898 0 10.09-4.0078 19.766-11.141 26.902-7.1328 7.1328-16.812 11.141-26.898 11.141zm48.84-126.46c0 4.2578-3.4531 7.7109-7.7109 7.7109h-349.58c-4.2578 0-7.7109-3.4531-7.7109-7.7109v-61.691c0-4.2617 3.4531-7.7109 7.7109-7.7109h349.58c4.2578 0 7.7109 3.4492 7.7109 7.7109z"/>
  <path d="m333.17 453.46v64.773c10.281-8.7383 11.824-20.051 11.824-32.387 0-12.34-1.543-23.648-11.824-32.387z"/>
  <path d="m230.35 389.71h215.92v-22.105c0-4.2578 3.4531-7.7109 7.7109-7.7109 4.2617 0 7.7148 3.4531 7.7148 7.7109v22.105h102.82v-46.266h-334.16z"/>
  <path d="m271.48 530.06c4.8125 2.4727 10.043 4.043 15.422 4.6289v-98.191c-5.2734 1.0664-10.434 2.6133-15.422 4.625z"/>
 </g>
</svg>